<?xml version="1.0" encoding="UTF-8" standalone="no"?>
<!-- Created with Inkscape (http://www.inkscape.org/) -->
<!-- ClipArt by Arvin61r58 (http://openclipart.org/user-detail/Arvin61r58) -->
<svg
   xmlns:dc="http://purl.org/dc/elements/1.1/"
   xmlns:cc="http://creativecommons.org/ns#"
   xmlns:rdf="http://www.w3.org/1999/02/22-rdf-syntax-ns#"
   xmlns:svg="http://www.w3.org/2000/svg"
   xmlns="http://www.w3.org/2000/svg"
   version="1.1"
   id="svg4948"
   viewBox="0 0 330 330.00001"
   height="330"
   width="330">
  <title
     id="title5522">Decorative Square 8</title>
  <defs
     id="defs4950" />
  <metadata
     id="metadata4953">
    <rdf:RDF>
      <cc:Work
         rdf:about="">
        <dc:format>image/svg+xml</dc:format>
        <dc:type
           rdf:resource="http://purl.org/dc/dcmitype/StillImage" />
        <dc:title>Decorative Square 8</dc:title>
        <cc:license
           rdf:resource="http://creativecommons.org/publicdomain/zero/1.0/" />
        <dc:subject>
          <rdf:Bag>
            <rdf:li>decoration</rdf:li>
            <rdf:li>decorative</rdf:li>
            <rdf:li>design</rdf:li>
            <rdf:li>emblem</rdf:li>
            <rdf:li>ornament</rdf:li>
            <rdf:li>pattern</rdf:li>
            <rdf:li>square</rdf:li>
            <rdf:li>monotone</rdf:li>
            <rdf:li>monochrome</rdf:li>
            <rdf:li>black &amp; white</rdf:li>
            <rdf:li>black and white</rdf:li>
            <rdf:li>grey scale</rdf:li>
            <rdf:li>GreyScale</rdf:li>
            <rdf:li>GrayScale</rdf:li>
          </rdf:Bag>
        </dc:subject>
        <dc:description>decorative square ornament</dc:description>
        <dc:creator>
          <cc:Agent>
            <dc:title>Arvin61r58</dc:title>
          </cc:Agent>
        </dc:creator>
        <dc:publisher>
          <cc:Agent>
            <dc:title>Openclipart.org</dc:title>
          </cc:Agent>
        </dc:publisher>
        <dc:identifier>https://openclipart.org/</dc:identifier>
        <dc:source>https://openclipart.org/user-detail/Arvin61r58</dc:source>
      </cc:Work>
      <cc:License
         rdf:about="http://creativecommons.org/publicdomain/zero/1.0/">
        <cc:permits
           rdf:resource="http://creativecommons.org/ns#Reproduction" />
        <cc:permits
           rdf:resource="http://creativecommons.org/ns#Distribution" />
        <cc:permits
           rdf:resource="http://creativecommons.org/ns#DerivativeWorks" />
      </cc:License>
    </rdf:RDF>
  </metadata>
  <g
     transform="translate(-207.04725,-361.18111)"
     id="layer1">
    <g
       id="g5581"
       transform="translate(215.55945,335.22071)">
      <rect
         style="opacity:1;fill:#000000;fill-opacity:1;fill-rule:nonzero;stroke:none;stroke-width:6;stroke-miterlimit:4;stroke-dasharray:none;stroke-opacity:1"
         id="rect4864"
         width="300"
         height="300"
         x="6.4877992"
         y="40.960403" />
      <rect
         style="opacity:1;fill:#ffffff;fill-opacity:1;fill-rule:nonzero;stroke:none;stroke-width:6;stroke-miterlimit:4;stroke-dasharray:none;stroke-opacity:1"
         id="rect4866"
         width="240"
         height="240"
         x="36.487801"
         y="70.960403" />
      <path
         style="fill:#000000"
         d="m 45.376799,300.6127 c 0,-5.78028 15.494463,-30.85512 23.598566,-38.18981 9.615701,-8.70281 9.871701,-8.68069 18.170837,1.56916 4.629773,5.71794 11.611908,10.39631 15.515938,10.39631 10.75099,0 -2.10337,-22.3656 -17.422569,-30.31394 -10.9641,-5.68872 -12.034055,-5.4435 -12.034055,2.75803 0,14.93472 -6.369594,10.08182 -17.392949,-13.25141 -13.370765,-28.30194 -13.370765,-57.06919 0,-85.37115 11.023355,-23.33319 17.392949,-28.18611 17.392949,-13.25143 0,8.20158 1.069955,8.44679 12.034055,2.75807 15.319199,-7.94834 28.173559,-30.31394 17.422569,-30.31394 -3.90403,0 -10.886165,4.67834 -15.515938,10.39632 -8.299136,10.24985 -8.555136,10.27196 -18.170837,1.56912 -10.791323,-9.76676 -24.903376,-35.399199 -21.411712,-38.891106 1.224921,-1.225021 5.408283,0.413078 9.296357,3.640174 4.834406,4.012508 7.069249,4.221451 7.069249,0.660989 0,-3.676042 27.266717,-5.206463 92.762391,-5.206463 65.49563,0 92.76235,1.530421 92.76235,5.206463 0,3.560462 2.23489,3.351519 7.06929,-0.660989 3.88806,-3.227096 8.07144,-4.865195 9.29636,-3.640174 3.49162,3.491907 -10.62044,29.124346 -21.41173,38.891106 -9.61572,8.70284 -9.87169,8.68073 -18.17086,-1.56912 -4.62973,-5.71798 -11.61192,-10.39632 -15.51595,-10.39632 -10.75096,0 2.10337,22.3656 17.42261,30.31394 10.9641,5.68872 12.03407,5.44351 12.03407,-2.75807 0,-14.93468 6.36957,-10.08176 17.39294,13.25143 13.37076,28.30196 13.37076,57.06921 0,85.37115 -11.02337,23.33323 -17.39294,28.18613 -17.39294,13.25141 0,-8.20153 -1.06997,-8.44675 -12.03407,-2.75803 -15.31924,7.94834 -28.17357,30.31394 -17.42261,30.31394 3.90403,0 10.88622,-4.67837 15.51595,-10.39631 8.29917,-10.24985 8.55514,-10.27197 18.17086,-1.56916 10.79129,9.76678 24.90335,35.39919 21.41173,38.89113 -1.22492,1.22499 -5.4083,-0.41314 -9.29636,-3.64017 -4.8344,-4.01255 -7.06929,-4.2215 -7.06929,-0.66102 0,3.67607 -27.26672,5.20649 -92.76235,5.20649 -69.056449,0 -92.762391,-1.42249 -92.762391,-5.56622 0,-4.32929 -1.23681,-4.32929 -5.565728,0 -5.201184,5.20163 -12.986732,7.57541 -12.986732,3.9596 z m 32.789412,-26.22434 c 2.373553,0 4.315551,-2.55121 4.315551,-5.66931 0,-3.15599 -4.361806,-1.3071 -9.839101,4.17068 -6.542772,6.54325 -8.48707,11.93913 -5.803405,16.10587 3.029263,4.70326 4.406773,3.66318 5.523594,-4.17063 0.818332,-5.74016 3.429808,-10.43661 5.803361,-10.43661 z m 104.035069,13.91548 c -1.57658,-2.55121 -5.87405,-4.63853 -9.54994,-4.63853 -3.67593,0 -6.68348,-2.0873 -6.68348,-4.63848 0,-2.55115 2.08718,-4.63847 4.63815,-4.63847 2.55096,0 4.63811,-4.19237 4.63811,-9.31631 0,-8.15515 -1.15615,-8.59424 -9.27626,-3.52273 -7.4171,4.63246 -11.13535,4.63246 -18.55246,0 -8.12007,-5.07151 -9.27621,-4.63242 -9.27621,3.52273 0,5.12394 2.08714,9.31631 4.6381,9.31631 2.55097,0 4.63811,2.08732 4.63811,4.63847 0,2.55118 -3.00756,4.63848 -6.68344,4.63848 -3.67589,0 -7.9734,2.08732 -9.54995,4.63853 -1.7917,2.89927 7.77326,4.63847 25.50964,4.63847 17.73639,0 27.30134,-1.7392 25.50963,-4.63847 z m 58.95565,-14.99782 c -5.64048,-5.64094 -10.25539,-7.70507 -10.25539,-4.58697 0,3.1181 2.08714,5.66931 4.63811,5.66931 2.551,0 4.63814,4.5921 4.63814,10.20466 0,7.98901 1.21963,8.98494 5.61725,4.58696 4.39762,-4.39798 3.39059,-7.84463 -4.63811,-15.87396 z m -112.29399,5.72081 c 0,-2.55115 -3.00755,-4.63847 -6.68348,-4.63847 -3.67585,0 -7.97336,2.08732 -9.54995,4.63847 -1.57659,2.55118 1.431,4.63848 6.68347,4.63848 5.25244,0 9.54996,-2.0873 9.54996,-4.63848 z m 71.8908,0 c -1.57659,-2.55115 -5.87402,-4.63847 -9.54995,-4.63847 -3.67592,0 -6.68343,2.08732 -6.68343,4.63847 0,2.55118 4.29748,4.63848 9.54995,4.63848 5.25248,0 8.26003,-2.0873 6.68343,-4.63848 z M 120.3962,250.29206 c -9.86965,-17.66815 -37.914438,-35.71562 -37.914438,-24.39886 0,3.83808 5.255295,8.97655 11.678466,11.41883 6.423142,2.44227 13.676512,9.69623 16.118622,16.11991 2.44207,6.42366 7.58013,11.67942 11.4179,11.67942 5.94019,0 5.74681,-2.20352 -1.30055,-14.8193 z m 82.70826,3.13988 c 2.44206,-6.42368 9.69543,-13.67764 16.1186,-16.11991 6.42315,-2.44228 11.67848,-7.58075 11.67848,-11.41883 0,-11.31676 -28.04483,6.73071 -37.91449,24.39886 -7.04732,12.61578 -7.24073,14.8193 -1.30052,14.8193 3.83778,0 8.97585,-5.25576 11.41793,-11.67942 z m -64.96527,-9.74129 c 0,-3.82674 -2.08719,-5.66771 -4.63814,-4.09099 -2.55097,1.5767 -4.63811,5.99769 -4.63811,9.82444 0,3.82679 2.08714,5.66775 4.63811,4.09104 2.55095,-1.57673 4.63814,-5.99774 4.63814,-9.82449 z m 29.79922,-2.46671 c 5.6063,-11.23901 6.04422,-16.10937 1.89766,-21.10602 -7.82257,-9.42645 6.64999,-23.90017 16.07566,-16.07696 4.99625,4.14689 9.86617,3.70893 21.1043,-1.89782 8.03508,-4.00872 14.60925,-9.07024 14.60925,-11.24765 0,-2.17748 -6.57417,-7.23897 -14.60925,-11.24769 -11.23813,-5.60678 -16.10805,-6.04469 -21.1043,-1.89781 -5.03125,4.17588 -8.18206,3.70366 -13.98058,-2.09527 -5.79843,-5.79896 -6.27066,-8.95002 -2.09508,-13.98168 4.14656,-4.99666 3.70864,-9.86701 -1.89766,-21.10601 -9.15225,-18.34763 -13.34132,-18.34763 -22.49353,0 -5.60629,11.239 -6.04422,16.10935 -1.89767,21.10601 7.82259,9.42643 -6.64999,23.90017 -16.07565,16.07695 -4.99625,-4.14688 -9.86624,-3.70897 -21.10431,1.89781 -18.346127,9.15295 -18.346127,13.34236 0,22.49534 11.23807,5.60675 16.10806,6.04471 21.10431,1.89782 9.42566,-7.82321 23.89824,6.65051 16.07565,16.07696 -4.14655,4.99665 -3.70862,9.86701 1.89767,21.10602 4.00841,8.03571 9.06948,14.61042 11.24677,14.61042 2.17726,0 7.23833,-6.57471 11.24676,-14.61042 z m -24.0016,-38.71291 c -7.56617,-8.59438 -7.32721,-15.38704 0.82823,-23.54313 8.39624,-8.39692 15.4569,-8.39692 23.85323,0 3.64422,3.64453 6.62585,9.01197 6.62585,11.92759 0,7.28742 -11.92193,18.59224 -19.3807,18.37749 -3.37095,-0.097 -8.73791,-3.13992 -11.92661,-6.76195 z m 19.96176,-7.38126 c 4.77967,-7.73428 -5.97021,-16.6035 -12.36854,-10.20465 -5.35204,5.35246 -2.00238,15.24732 5.16162,15.24732 2.24985,0 5.49296,-2.26918 7.20692,-5.04267 z m 16.50542,45.45552 c -3.78776,-3.78808 -5.15987,-3.26896 -5.15987,1.95207 0,9.22068 6.23691,15.45802 8.54184,8.54255 0.97788,-2.93383 -0.54397,-7.65638 -3.38197,-10.49462 z m -53.14157,-14.70106 c -1.51056,-3.9368 -6.26619,-7.15779 -10.56807,-7.15779 -7.13766,0 -7.08525,0.81369 0.599,9.30541 9.22818,10.19784 14.28784,9.10783 9.96907,-2.14762 z m 73.71981,-6.15624 c -4.46574,-4.46609 -16.46187,3.6723 -16.46187,11.16797 0,7.13823 0.81362,7.0859 9.30466,-0.59904 5.11758,-4.63171 8.33832,-9.38772 7.15721,-10.56893 z m -127.776714,5.9562 c 0,-3.82675 -2.087153,-6.95775 -4.638107,-6.95775 -2.550964,0 -4.63815,3.131 -4.63815,6.95775 0,3.82674 2.087186,6.95772 4.63815,6.95772 2.550954,0 4.638107,-3.13098 4.638107,-6.95772 z m 176.248484,0 c 0,-3.82675 -2.08715,-6.95775 -4.63811,-6.95775 -2.55096,0 -4.6381,3.131 -4.6381,6.95775 0,3.82674 2.08714,6.95772 4.6381,6.95772 2.55096,0 4.63811,-3.13098 4.63811,-6.95772 z M 63.929259,206.85646 c 0,-8.02932 7.751881,-8.93832 10.327433,-1.21099 1.162521,3.4879 5.087817,4.13322 10.822257,1.77921 5.834537,-2.39512 6.959726,-4.45525 3.20044,-5.85958 -3.188708,-1.19115 -5.797627,-5.99246 -5.797627,-10.66961 0,-4.67715 2.608919,-9.4785 5.797627,-10.66969 3.759286,-1.40428 2.634097,-3.46441 -3.20044,-5.85953 -5.73444,-2.35404 -9.659736,-1.70873 -10.822257,1.77921 -2.575552,7.72733 -10.327433,6.81832 -10.327433,-1.21098 0,-3.67619 -2.087143,-7.97404 -4.638107,-9.55076 -2.899031,-1.79182 -4.638106,7.77392 -4.638106,25.51175 0,17.73782 1.739075,27.30353 4.638106,25.51169 2.550964,-1.57672 4.638107,-5.87452 4.638107,-9.55072 z m 44.062151,7.23146 c 1.57658,-2.55117 -0.26408,-4.63847 -4.09067,-4.63847 -3.82649,0 -8.247102,2.0873 -9.823701,4.63847 -1.576587,2.5512 0.264078,4.63852 4.090661,4.63852 3.82644,0 8.24711,-2.08732 9.82371,-4.63852 z m 30.14778,0 c 0,-2.55117 -2.08719,-4.63847 -4.63814,-4.63847 -2.55097,0 -4.63811,2.0873 -4.63811,4.63847 0,2.5512 2.08714,4.63852 4.63811,4.63852 2.55095,0 4.63814,-2.08732 4.63814,-4.63852 z m 46.38117,0 c 0,-2.55117 -2.08715,-4.63847 -4.63815,-4.63847 -2.55095,0 -4.63809,2.0873 -4.63809,4.63847 0,2.5512 2.08714,4.63852 4.63809,4.63852 2.551,0 4.63815,-2.08732 4.63815,-4.63852 z m 34.78589,0 c -1.57658,-2.55117 -5.99725,-4.63847 -9.82369,-4.63847 -3.82644,0 -5.66726,2.0873 -4.09067,4.63847 1.57659,2.5512 5.99722,4.63852 9.82367,4.63852 3.82647,0 5.66728,-2.08732 4.09069,-4.63852 z m 38.10218,-38.26757 c -1.7354,-13.70006 -2.23459,-14.12317 -5.47296,-4.63849 -3.8698,11.33418 -9.90591,13.67326 -12.80888,4.96362 -1.16255,-3.48794 -5.08784,-4.13325 -10.82224,-1.77921 -5.83455,2.39512 -6.95977,4.45525 -3.20048,5.85953 3.1887,1.19119 5.79767,5.99254 5.79767,10.66969 0,4.67715 -2.60897,9.47846 -5.79767,10.66961 -3.75929,1.40433 -2.63407,3.46446 3.20048,5.85958 5.7344,2.35401 9.65969,1.70869 10.82224,-1.77921 2.90297,-8.70965 8.93908,-6.37058 12.80888,4.96358 3.23837,9.48468 3.73756,9.06157 5.47296,-4.63849 1.05026,-8.29132 1.05026,-21.85892 0,-30.15021 z M 107.99141,167.703 c -1.5766,-2.55118 -5.99727,-4.63848 -9.82371,-4.63848 -3.826438,0 -5.667248,2.0873 -4.090661,4.63848 1.576599,2.55117 5.997211,4.63849 9.823701,4.63849 3.82645,0 5.66725,-2.08732 4.09067,-4.63849 z m 30.14778,0 c 0,-2.55118 -2.08719,-4.63848 -4.63814,-4.63848 -2.55097,0 -4.63811,2.0873 -4.63811,4.63848 0,2.55117 2.08714,4.63849 4.63811,4.63849 2.55095,0 4.63814,-2.08732 4.63814,-4.63849 z m 46.38117,0 c 0,-2.55118 -2.08715,-4.63848 -4.63815,-4.63848 -2.55095,0 -4.63809,2.0873 -4.63809,4.63848 0,2.55117 2.08714,4.63849 4.63809,4.63849 2.551,0 4.63815,-2.08732 4.63815,-4.63849 z m 34.78589,0 c 1.57659,-2.55118 -0.26408,-4.63848 -4.09069,-4.63848 -3.82645,0 -8.24708,2.0873 -9.82367,4.63848 -1.57659,2.55117 0.26407,4.63849 4.09067,4.63849 3.82644,0 8.24711,-2.08732 9.82369,-4.63849 z M 73.205516,156.10678 c 0,-3.82675 -2.087153,-6.95774 -4.638107,-6.95774 -2.550964,0 -4.63815,3.13099 -4.63815,6.95774 0,3.82674 2.087186,6.95774 4.63815,6.95774 2.550954,0 4.638107,-3.131 4.638107,-6.95774 z M 120.3962,131.49885 c 7.04736,-12.61578 7.24074,-14.81926 1.30055,-14.81926 -3.83777,0 -8.97583,5.25572 -11.4179,11.67941 -2.44211,6.42368 -9.69548,13.67761 -16.118622,16.11992 -6.423171,2.44227 -11.678466,7.58075 -11.678466,11.4188 0,11.31679 28.044788,-6.73068 37.914438,-24.39887 z m 6.86622,24.40787 c 4.31877,-11.25549 -0.74089,-12.34546 -9.96907,-2.1476 -7.68425,8.49169 -7.73666,9.3054 -0.599,9.3054 4.30188,0 9.05751,-3.221 10.56807,-7.1578 z m 68.82748,-2.1476 c -9.22814,-10.19786 -14.28784,-9.10789 -9.96903,2.1476 1.51055,3.9368 6.26618,7.1578 10.56803,7.1578 7.13767,0 7.08533,-0.81371 -0.599,-9.3054 z m 34.81164,2.23283 c 0,-3.88989 -5.25533,-9.07076 -11.67848,-11.51303 -6.42317,-2.44231 -13.67654,-9.69624 -16.1186,-16.11992 -2.44208,-6.42369 -7.58015,-11.67941 -11.41793,-11.67941 -15.39261,0 17.75825,40.11146 38.05549,46.04591 0.63769,0.18667 1.15952,-2.84364 1.15952,-6.73355 z m 18.55246,0.11483 c 0,-3.82675 -2.08715,-6.95774 -4.63811,-6.95774 -2.55096,0 -4.6381,3.13099 -4.6381,6.95774 0,3.82674 2.08714,6.95774 4.6381,6.95774 2.55096,0 4.63811,-3.131 4.63811,-6.95774 z m -115.43118,-26.8453 c -3.78777,-3.78796 -5.15988,-3.26884 -5.15988,1.9522 0,9.22066 6.23688,15.458 8.54184,8.54253 0.97788,-2.93382 -0.544,-7.65639 -3.38196,-10.49459 z m 50.49754,3.10547 c 0,-3.82675 -2.08715,-5.6677 -4.63815,-4.09099 -2.55095,1.57672 -4.63809,5.99771 -4.63809,9.82449 0,3.82675 2.08714,5.66772 4.63809,4.09098 2.551,-1.57671 4.63815,-5.99772 4.63815,-9.82448 z m -18.5525,-12.12519 c 8.12011,5.07145 9.27626,4.63246 9.27626,-3.52276 0,-5.12392 -2.08715,-9.31627 -4.63811,-9.31627 -8.70144,0 -4.66552,-8.185646 5.79762,-11.758632 9.4839,-3.238675 9.06084,-3.737852 -4.63811,-5.473406 -8.29066,-1.050332 -21.85715,-1.050332 -30.14775,0 -13.69898,1.735554 -14.12205,2.234731 -4.63813,5.473406 10.46317,3.572986 14.49909,11.758632 5.79765,11.758632 -2.55096,0 -4.6381,4.19235 -4.6381,9.31627 0,8.15522 1.15614,8.59421 9.27621,3.52276 7.41711,-4.63244 11.13536,-4.63244 18.55246,0 z M 79.003177,108.7004 c -3.188742,-1.1389 -5.797661,-6.48892 -5.797661,-11.888914 0,-7.526749 -1.273377,-8.544648 -5.45615,-4.36153 -4.182807,4.183107 -3.467775,7.653864 3.063663,14.871634 4.685851,5.17826 9.750068,8.07279 11.253766,6.43229 1.50371,-1.64046 0.125189,-3.91458 -3.063618,-5.05348 z M 245.79504,92.611111 c -4.39762,-4.398017 -5.61725,-3.402085 -5.61725,4.586918 0,5.612611 -2.08714,10.204701 -4.63814,10.204701 -2.55097,0 -4.63811,2.55119 -4.63811,5.66927 0,3.1181 4.61491,1.05397 10.25539,-4.58695 8.0287,-8.02934 9.03573,-11.475987 4.63811,-15.873939 z m -116.9321,10.153149 c 0,-2.55121 -4.29752,-4.638521 -9.54996,-4.638521 -5.25247,0 -8.26006,2.087311 -6.68347,4.638521 1.57659,2.55117 5.8741,4.63847 9.54995,4.63847 3.67593,0 6.68348,-2.0873 6.68348,-4.63847 z m 71.8908,0 c 1.5766,-2.55121 -1.43091,-4.638521 -6.68343,-4.638521 -5.25247,0 -9.54995,2.087311 -9.54995,4.638521 0,2.55117 3.00751,4.63847 6.68343,4.63847 3.67593,0 7.97336,-2.0873 9.54995,-4.63847 z"
         id="path4158-0" />
      <path
         style="opacity:1;fill:none;fill-opacity:1;fill-rule:nonzero;stroke:#ffffff;stroke-width:8;stroke-miterlimit:4;stroke-dasharray:none;stroke-opacity:1"
         d="m 22.987798,57.460406 267.000002,0 0,266.999994 -267.000002,0 z"
         id="rect4902" />
    </g>
  </g>
</svg>
